<svg width="169" height="19" viewBox="0 0 169 19" fill="none" xmlns="http://www.w3.org/2000/svg">
<path d="M14.128 0.803999V18H12.964C12.78 18 12.624 17.968 12.496 17.904C12.376 17.84 12.256 17.732 12.136 17.58L2.188 4.62C2.204 4.82 2.216 5.016 2.224 5.208C2.232 5.4 2.236 5.58 2.236 5.748V18H0.196V0.803999H1.396C1.5 0.803999 1.588 0.811999 1.66 0.827999C1.732 0.835999 1.796 0.855999 1.852 0.887999C1.908 0.911999 1.964 0.951999 2.02 1.008C2.076 1.056 2.136 1.12 2.2 1.2L12.148 14.148C12.132 13.94 12.116 13.74 12.1 13.548C12.092 13.348 12.088 13.16 12.088 12.984V0.803999H14.128ZM29.1321 16.104L29.1201 18H18.5241V0.803999H29.1201V2.7H20.8521V8.412H27.5481V10.236H20.8521V16.104H29.1321ZM54.6597 0.803999L49.2957 18H47.2077L42.8517 4.884C42.8117 4.756 42.7717 4.62 42.7317 4.476C42.6997 4.332 42.6637 4.18 42.6237 4.02C42.5837 4.18 42.5437 4.332 42.5037 4.476C42.4637 4.62 42.4237 4.756 42.3837 4.884L38.0037 18H35.9157L30.5517 0.803999H32.4837C32.6917 0.803999 32.8637 0.855999 32.9997 0.959999C33.1437 1.064 33.2357 1.196 33.2757 1.356L36.8277 13.308C36.8837 13.524 36.9357 13.756 36.9837 14.004C37.0397 14.252 37.0917 14.516 37.1397 14.796C37.1957 14.516 37.2517 14.252 37.3077 14.004C37.3717 13.748 37.4397 13.516 37.5117 13.308L41.5557 1.356C41.6037 1.22 41.6957 1.096 41.8317 0.983999C41.9757 0.863999 42.1477 0.803999 42.3477 0.803999H43.0197C43.2277 0.803999 43.3957 0.855999 43.5237 0.959999C43.6517 1.064 43.7477 1.196 43.8117 1.356L47.8437 13.308C47.9157 13.516 47.9797 13.74 48.0357 13.98C48.0997 14.22 48.1597 14.472 48.2157 14.736C48.2557 14.472 48.2997 14.22 48.3477 13.98C48.3957 13.74 48.4477 13.516 48.5037 13.308L52.0677 1.356C52.1077 1.212 52.1957 1.084 52.3317 0.972C52.4757 0.859999 52.6477 0.803999 52.8477 0.803999H54.6597ZM71.3671 11.616L68.6671 4.62C68.5871 4.412 68.5031 4.172 68.4151 3.9C68.3271 3.62 68.2431 3.324 68.1631 3.012C67.9951 3.66 67.8231 4.2 67.6471 4.632L64.9471 11.616H71.3671ZM76.2151 18H74.4151C74.2071 18 74.0391 17.948 73.9111 17.844C73.7831 17.74 73.6871 17.608 73.6231 17.448L72.0151 13.296H64.2991L62.6911 17.448C62.6431 17.592 62.5511 17.72 62.4151 17.832C62.2791 17.944 62.1111 18 61.9111 18H60.1111L66.9871 0.803999H69.3391L76.2151 18ZM83.2413 9.132C83.9133 9.132 84.5053 9.052 85.0173 8.892C85.5373 8.724 85.9693 8.492 86.3133 8.196C86.6653 7.892 86.9293 7.532 87.1053 7.116C87.2813 6.7 87.3693 6.24 87.3693 5.736C87.3693 4.712 87.0333 3.94 86.3613 3.42C85.6893 2.9 84.6813 2.64 83.3372 2.64H80.7933V9.132H83.2413ZM91.1853 18H89.1213C88.6973 18 88.3853 17.836 88.1853 17.508L83.7213 11.364C83.5853 11.172 83.4373 11.036 83.2773 10.956C83.1253 10.868 82.8853 10.824 82.5573 10.824H80.7933V18H78.4773V0.803999H83.3372C84.4253 0.803999 85.3653 0.915999 86.1573 1.14C86.9493 1.356 87.6013 1.672 88.1133 2.088C88.6333 2.504 89.0173 3.008 89.2653 3.6C89.5133 4.184 89.6373 4.84 89.6373 5.568C89.6373 6.176 89.5413 6.744 89.3493 7.272C89.1573 7.8 88.8773 8.276 88.5093 8.7C88.1493 9.116 87.7053 9.472 87.1773 9.768C86.6573 10.064 86.0653 10.288 85.4013 10.44C85.6973 10.608 85.9533 10.852 86.1693 11.172L91.1853 18ZM98.2881 9.132C98.9601 9.132 99.5521 9.052 100.064 8.892C100.584 8.724 101.016 8.492 101.36 8.196C101.712 7.892 101.976 7.532 102.152 7.116C102.328 6.7 102.416 6.24 102.416 5.736C102.416 4.712 102.08 3.94 101.408 3.42C100.736 2.9 99.7281 2.64 98.3841 2.64H95.8401V9.132H98.2881ZM106.232 18H104.168C103.744 18 103.432 17.836 103.232 17.508L98.7681 11.364C98.6321 11.172 98.4841 11.036 98.3241 10.956C98.1721 10.868 97.9321 10.824 97.6041 10.824H95.8401V18H93.5241V0.803999H98.3841C99.4721 0.803999 100.412 0.915999 101.204 1.14C101.996 1.356 102.648 1.672 103.16 2.088C103.68 2.504 104.064 3.008 104.312 3.6C104.56 4.184 104.684 4.84 104.684 5.568C104.684 6.176 104.588 6.744 104.396 7.272C104.204 7.8 103.924 8.276 103.556 8.7C103.196 9.116 102.752 9.472 102.224 9.768C101.704 10.064 101.112 10.288 100.448 10.44C100.744 10.608 101 10.852 101.216 11.172L106.232 18ZM110.899 18H108.571V0.803999H110.899V18ZM129.278 0.803999L122.27 18H120.182L113.174 0.803999H115.034C115.242 0.803999 115.41 0.855999 115.538 0.959999C115.666 1.064 115.762 1.196 115.826 1.356L120.674 13.488C120.778 13.76 120.878 14.056 120.974 14.376C121.078 14.696 121.17 15.032 121.25 15.384C121.33 15.032 121.414 14.696 121.502 14.376C121.59 14.056 121.686 13.76 121.79 13.488L126.626 1.356C126.674 1.22 126.766 1.096 126.902 0.983999C127.046 0.863999 127.218 0.803999 127.418 0.803999H129.278ZM139.383 11.616L136.683 4.62C136.603 4.412 136.519 4.172 136.431 3.9C136.343 3.62 136.259 3.324 136.179 3.012C136.011 3.66 135.839 4.2 135.663 4.632L132.963 11.616H139.383ZM144.231 18H142.431C142.223 18 142.055 17.948 141.927 17.844C141.799 17.74 141.703 17.608 141.639 17.448L140.031 13.296H132.315L130.707 17.448C130.659 17.592 130.567 17.72 130.431 17.832C130.295 17.944 130.127 18 129.927 18H128.127L135.003 0.803999H137.355L144.231 18ZM156.249 16.044V18H146.493V0.803999H148.809V16.044H156.249ZM167.617 3.492C167.545 3.612 167.465 3.704 167.377 3.768C167.297 3.824 167.197 3.852 167.077 3.852C166.941 3.852 166.781 3.784 166.597 3.648C166.413 3.512 166.181 3.364 165.901 3.204C165.629 3.036 165.297 2.884 164.905 2.748C164.521 2.612 164.053 2.544 163.501 2.544C162.981 2.544 162.521 2.616 162.121 2.76C161.729 2.896 161.397 3.084 161.125 3.324C160.861 3.564 160.661 3.848 160.525 4.176C160.389 4.496 160.321 4.844 160.321 5.22C160.321 5.7 160.437 6.1 160.669 6.42C160.909 6.732 161.221 7 161.605 7.224C161.997 7.448 162.437 7.644 162.925 7.812C163.421 7.972 163.925 8.14 164.437 8.316C164.957 8.492 165.461 8.692 165.949 8.916C166.445 9.132 166.885 9.408 167.269 9.744C167.661 10.08 167.973 10.492 168.205 10.98C168.445 11.468 168.565 12.068 168.565 12.78C168.565 13.532 168.437 14.24 168.181 14.904C167.925 15.56 167.549 16.132 167.053 16.62C166.565 17.108 165.961 17.492 165.241 17.772C164.529 18.052 163.717 18.192 162.805 18.192C161.685 18.192 160.669 17.992 159.757 17.592C158.845 17.184 158.065 16.636 157.417 15.948L158.089 14.844C158.153 14.756 158.229 14.684 158.317 14.628C158.413 14.564 158.517 14.532 158.629 14.532C158.733 14.532 158.849 14.576 158.977 14.664C159.113 14.744 159.265 14.848 159.433 14.976C159.601 15.104 159.793 15.244 160.009 15.396C160.225 15.548 160.469 15.688 160.741 15.816C161.021 15.944 161.337 16.052 161.689 16.14C162.041 16.22 162.437 16.26 162.877 16.26C163.429 16.26 163.921 16.184 164.353 16.032C164.785 15.88 165.149 15.668 165.445 15.396C165.749 15.116 165.981 14.784 166.141 14.4C166.301 14.016 166.381 13.588 166.381 13.116C166.381 12.596 166.261 12.172 166.021 11.844C165.789 11.508 165.481 11.228 165.097 11.004C164.713 10.78 164.273 10.592 163.777 10.44C163.281 10.28 162.777 10.12 162.265 9.96C161.753 9.792 161.249 9.6 160.753 9.384C160.257 9.168 159.817 8.888 159.433 8.544C159.049 8.2 158.737 7.772 158.497 7.26C158.265 6.74 158.149 6.1 158.149 5.34C158.149 4.732 158.265 4.144 158.497 3.576C158.737 3.008 159.081 2.504 159.529 2.064C159.985 1.624 160.541 1.272 161.197 1.008C161.861 0.743999 162.621 0.611999 163.477 0.611999C164.437 0.611999 165.309 0.763999 166.093 1.068C166.885 1.372 167.581 1.812 168.181 2.388L167.617 3.492Z" fill="#F16D7F"/>
</svg>
